Coordinates
version=1
nRows=4
nColumns=63
inDegrees=yes

Units are S.I. units (second, meters, Newtons, ...)
If the header above contains a line with 'inDegrees', this indicates whether rotational values are in degrees (yes) or radians (no).

endheader
time	pelvis_tilt	pelvis_list	pelvis_rotation	pelvis_tx	pelvis_ty	pelvis_tz	hip_flexion_r	hip_adduction_r	hip_rotation_r	knee_angle_r	knee_angle_r_beta	ankle_angle_r	subtalar_angle_r	mtp_angle_r	hip_flexion_l	hip_adduction_l	hip_rotation_l	knee_angle_l	knee_angle_l_beta	ankle_angle_l	subtalar_angle_l	mtp_angle_l	L5_S1_Flex_Ext	L5_S1_Lat_Bending	L5_S1_axial_rotation	L4_L5_Flex_Ext	L4_L5_Lat_Bending	L4_L5_axial_rotation	L3_L4_Flex_Ext	L3_L4_Lat_Bending	L3_L4_axial_rotation	L2_L3_Flex_Ext	L2_L3_Lat_Bending	L2_L3_axial_rotation	L1_L2_Flex_Ext	L1_L2_Lat_Bending	L1_L2_axial_rotation	L1_T12_Flex_Ext	L1_T12_Lat_Bending	L1_T12_axial_rotation	Abs_r3	Abs_r2	Abs_r1	Abs_t1	Abs_t2	neck_flexion	neck_bending	neck_rotation	arm_flex_r	arm_add_r	arm_rot_r	elbow_flex_r	pro_sup_r	wrist_flex_r	wrist_dev_r	arm_flex_l	arm_add_l	arm_rot_l	elbow_flex_l	pro_sup_l	wrist_flex_l	wrist_dev_l
      1.33333333	      5.89712678	     -3.59351617	     99.28055661	      0.00789946	      1.01063765	      0.60321668	     -4.60464069	      4.23561257	      7.64164750	      0.89559640	      0.01563111	     26.75296312	    -12.30367141	      0.00000000	     -3.00060915	     -4.49944840	     21.15398125	      0.53309808	      0.00930432	     27.29063023	    -16.61784720	      0.00000000	      0.06504371	      0.48097068	     -0.08320188	      0.12079267	      0.63969101	     -0.08840200	      0.10686030	      1.16943211	     -0.08840200	      0.07433845	      1.16943211	     -0.07280164	      0.06039958	      0.98079541	     -0.06760153	      0.03716597	      0.74502358	     -0.06240141	      0.46460068	      5.44083653	     -0.46274388	      0.00000000	      0.00000000	     27.78501856	      5.37950768	      6.28832762	     14.63567079	     -8.23206165	    130.45421294	     15.42190536	      3.56927159	     -2.75215315	     -1.25519207	     11.43777322	     -0.14902834	    150.06697868	      1.12963872	      1.17143167	     -2.02336938	    -14.33525237
      1.35000000	      5.97979216	     -4.05975789	     99.13941846	      0.00733638	      1.01119255	      0.60601606	     -3.76177174	      4.17690294	      7.66971717	      1.19517579	      0.02085975	     26.58149150	    -12.32431692	      0.00000000	     -2.31255548	     -4.40717942	     20.86297128	      0.60620922	      0.01058035	     27.08479287	    -16.59370471	      0.00000000	      0.09882258	      0.50342323	     -0.05329109	      0.18352342	      0.66955289	     -0.05662179	      0.16235562	      1.22402324	     -0.05662179	      0.11294433	      1.22402324	     -0.04662971	      0.09176665	      1.02658065	     -0.04329901	      0.05646722	      0.77980258	     -0.03996832	      0.70587984	      5.69482425	     -0.29638908	      0.00000000	      0.00000000	     27.75162958	      4.82415309	      6.96132646	     15.78816128	     -7.93993191	    132.08363367	     15.72172820	      4.26705473	     -4.04389937	     -1.14004059	     12.72861128	      0.73817194	    151.88370356	      0.73184690	      1.21083415	     -3.48110587	    -15.32332433
      1.36666667	      5.96342735	     -4.34475814	     99.20507605	      0.00675454	      1.01210528	      0.60868773	     -3.17257554	      4.08082353	      7.57379720	      1.45612195	      0.02541412	     26.27721740	    -12.44058689	      0.00000000	     -1.78683081	     -4.26649390	     20.67292003	      0.70472547	      0.01229978	     26.81601263	    -16.46335754	      0.00000000	      0.09938027	      0.50993773	     -0.02304478	      0.18455910	      0.67821718	     -0.02448508	      0.16327185	      1.23986259	     -0.02448508	      0.11358171	      1.23986259	     -0.02016418	      0.09228452	      1.03986501	     -0.01872389	      0.05678589	      0.78989354	     -0.01728359	      0.70986335	      5.76851755	     -0.12816816	      0.00000000	      0.00000000	     27.66901736	      4.84919789	      7.80787587	     16.92774134	     -7.23624952	    134.54775089	     15.54040770	      4.43401613	     -4.92322562	     -2.19301503	     14.36259153	      1.83844821	    155.57277475	      0.48358652	      1.13026493	     -6.34295339	    -15.77933837
      1.38333333	      5.91995628	     -4.61592103	     99.33399130	      0.00616222	      1.01297442	      0.61110035	     -2.60497989	      3.97447723	      7.37940961	      1.80669693	      0.03153281	     26.01702452	    -12.52242645	      0.00000000	     -1.27818681	     -4.10586690	     20.55341080	      0.79955440	      0.01395486	     26.55813301	    -16.34483733	      0.00000000	      0.09880429	      0.50905065	     -0.01093776	      0.18348945	      0.67703737	     -0.01162137	      0.16232557	      1.23770575	     -0.01162137	      0.11292343	      1.23770575	     -0.00957054	      0.09174967	      1.03805609	     -0.00888693	      0.05645677	      0.78851946	     -0.00820332	      0.70574918	      5.75848278	     -0.06083254	      0.00000000	      0.00000000	     27.55083355	      4.39528650	      8.10038047	     17.99257463	     -6.54995529	    134.44645027	     15.69608186	      4.30056800	     -5.59667736	     -3.85382781	     15.94275519	      2.99061762	    156.17050013	      0.40372905	      1.09710716	     -7.89519814	    -17.42545781
